<?xml version="1.0" encoding="UTF-8" standalone="no"?>
<svg
   xmlns:dc="http://purl.org/dc/elements/1.1/"
   xmlns:cc="http://creativecommons.org/ns#"
   xmlns:rdf="http://www.w3.org/1999/02/22-rdf-syntax-ns#"
   xmlns:svg="http://www.w3.org/2000/svg"
   xmlns="http://www.w3.org/2000/svg"
   xmlns:sodipodi="http://sodipodi.sourceforge.net/DTD/sodipodi-0.dtd"
   xmlns:inkscape="http://www.inkscape.org/namespaces/inkscape"
   viewBox="0 0 3333 3333"
   shape-rendering="geometricPrecision"
   text-rendering="geometricPrecision"
   image-rendering="optimizeQuality"
   fill-rule="evenodd"
   clip-rule="evenodd"
   version="1.1"
   id="svg22"
   sodipodi:docname="logo-twitter.svg"
   inkscape:version="0.92.4 (5da689c313, 2019-01-14)">
  <metadata
     id="metadata28">
    <rdf:RDF>
      <cc:Work
         rdf:about="">
        <dc:format>image/svg+xml</dc:format>
        <dc:type
           rdf:resource="http://purl.org/dc/dcmitype/StillImage" />
      </cc:Work>
    </rdf:RDF>
  </metadata>
  <defs
     id="defs26" />
  <sodipodi:namedview
     pagecolor="#ffffff"
     bordercolor="#666666"
     borderopacity="1"
     objecttolerance="10"
     gridtolerance="10"
     guidetolerance="10"
     inkscape:pageopacity="0"
     inkscape:pageshadow="2"
     inkscape:window-width="1920"
     inkscape:window-height="1001"
     id="namedview24"
     showgrid="false"
     inkscape:zoom="0.24242424"
     inkscape:cx="1666.5"
     inkscape:cy="1666.5"
     inkscape:window-x="1911"
     inkscape:window-y="-9"
     inkscape:window-maximized="1"
     inkscape:current-layer="svg22" />
  <path
     d="M1667 0c460 0 877 187 1179 488 302 302 488 718 488 1179 0 460-187 877-488 1179-302 302-718 488-1179 488-460 0-877-187-1179-488C186 2544 0 2128 0 1667c0-460 187-877 488-1179C790 186 1206 0 1667 0zm867 1129c-64 29-132 47-204 56 74-44 130-114 157-197-69 41-145 70-226 86-65-69-157-112-260-112-197 0-356 159-356 356 0 28 3 55 9 81-296-15-558-157-733-372-31 54-48 116-48 179 0 123 63 232 158 296-58-2-113-18-161-44v4c0 172 123 316 286 349-30 8-61 13-94 13-23 0-45-2-67-6 46 141 177 244 332 247-122 96-275 152-442 152-29 0-57-2-85-5 158 101 345 160 546 160 654 0 1013-542 1013-1013 0-16 0-31-1-46 70-50 130-112 177-184zm226-555c-280-280-666-453-1093-453S853 294 574 574c-280 280-453 666-453 1093s173 814 453 1093c280 280 666 453 1093 453s814-173 1093-453c280-280 453-666 453-1093s-173-814-453-1093z"
     fill-rule="nonzero"
     id="path20" />
  <path
     style="opacity:1;fill:#ffffff;fill-opacity:1;stroke-width:4.125"
     d="M 1553.0625,3328.7833 C 1026.2026,3286.861 564.48426,3017.3448 278.38833,2584.725 94.918411,2307.2911 3.8726061,2004.4928 3.6594805,1671.0375 3.5340306,1474.759 28.401028,1318.5725 88.380946,1138.9125 287.66626,541.98598 810.81507,105.71267 1431.375,18.939702 c 132.8575,-18.57747853 299.1801,-21.1422238 422.8125,-6.519896 390.566,46.193284 748.515,223.670994 1015.73,503.617694 365.7986,383.22731 526.084,907.5134 438.0319,1432.7812 -60.9297,363.471 -256.557,716.2629 -532.6483,960.5713 -260.8648,230.8348 -566.9624,368.6103 -914.9261,411.811 -49.4337,6.1373 -260.1376,11.3361 -307.3125,7.5823 z m 283.1414,-123.4353 c 455.1553,-50.0701 861.4111,-296.7372 1117.2673,-678.373 135.2897,-201.7985 216.0321,-418.6811 250.3158,-672.375 10.7818,-79.7834 10.7818,-295.5916 0,-375.375 C 3173.1918,1252.826 3105.8127,1056.411 2995.7733,872.85 2784.1853,519.8919 2440.3264,264.7934 2042.2914,165.49078 1795.2712,103.86363 1536.6798,104.00137 1289.0625,165.89197 1091.1286,215.36446 896.1294,308.83436 733.32163,432.27789 654.7914,491.82082 561.14466,580.12783 493.82112,658.12218 292.03949,891.88626 167.91918,1174.2443 129.25023,1487.475 c -10.32578,83.6421 -10.36581,274.6601 -0.0752,358.875 63.40335,518.8715 373.75751,964.3081 836.07497,1199.9789 184.9977,94.3044 389.4041,150.6702 599.9722,165.4446 66.8135,4.6879 198.2981,1.5702 270.9817,-6.4255 z"
     id="path30"
     inkscape:connector-curvature="0" />
  <path
     style="opacity:1;fill:#ffffff;fill-opacity:1;stroke-width:4.125"
     d="M 1272.5625,2367.837 C 1106.358,2351.6368 958.1254,2304.9589 832.67718,2229.3188 l -22.85603,-13.7813 82.87067,-0.1455 c 69.3026,-0.1217 90.5874,-1.6845 130.00258,-9.5447 60.0562,-11.9765 123.0424,-33.021 176.1505,-58.8544 46.5482,-22.6423 130.7432,-76.5157 127.58,-81.6338 -1.1213,-1.8142 -15.7132,-4.3328 -32.4265,-5.5968 -39.9574,-3.022 -99.7856,-23.2262 -140.8152,-47.5538 -60.2278,-35.7109 -122.1605,-107.1882 -146.2897,-168.8347 l -8.43048,-21.5388 38.13668,2.5051 c 37.1604,2.441 102.6263,-3.7906 114.0603,-10.8572 3.5911,-2.2194 -2.7864,-5.734 -18.8339,-10.3794 -143.58283,-41.5634 -244.75994,-164.6562 -258.94285,-315.0317 -1.89471,-20.0887 -1.27166,-25.6889 2.66583,-23.9614 37.89609,16.6261 75.249,28.5555 106.06169,33.8729 53.30813,9.1995 55.77463,7.5751 25.36153,-16.703 -55.03438,-43.9326 -101.35391,-115.9534 -120.73673,-187.7297 -7.70494,-28.5321 -9.39403,-44.9392 -9.12523,-88.6381 0.36926,-60.0305 8.33867,-97.9747 30.82289,-146.7548 l 12.75949,-27.6821 27.8523,31.531 c 84.86298,96.0713 191.27868,176.9946 307.51748,233.85 122.1147,59.7295 231.5308,90.4003 368.4244,103.2745 l 30.1743,2.8377 -3.3618,-26.3406 c -1.8491,-14.4874 -3.1031,-45.0541 -2.7868,-67.9259 1.7658,-127.6689 77.2441,-246.7634 193.2999,-305.0011 56.9946,-28.60033 91.7432,-36.45603 160.875,-36.36938 50.6365,0.0635 62.2196,1.42862 94.0359,11.0829 58.4285,17.72943 104.6352,43.55128 144.5866,80.79988 l 19.9975,18.6447 43.94,-11.4869 c 49.4466,-12.9264 105.2387,-34.0193 144.7312,-54.7173 14.5976,-7.6507 27.3596,-13.09176 28.3601,-12.09133 3.3671,3.36713 -12.0573,36.99623 -30.9044,67.37903 -23.6266,38.0877 -57.1973,74.4681 -90.9275,98.5374 -14.4439,10.307 -25.4631,19.5386 -24.487,20.5147 5.7743,5.7743 118.5815,-20.8404 168.1287,-39.6669 11.9885,-4.5552 22.594,-7.4854 23.568,-6.5114 0.9739,0.9739 -10.2833,17.1721 -25.0162,35.9959 -29.5634,37.7724 -93.2512,100.9256 -123.7317,122.6932 l -19.5937,13.9928 v 58.902 c 0,188.4889 -63.9933,393.5004 -174.2586,558.2616 -39.7325,59.3693 -67.6599,93.9754 -116.2614,144.0643 -154.3755,159.0999 -342.9015,254.4253 -568.2904,287.3476 -40.7553,5.953 -189.6366,11.1127 -224.0021,7.763 z"
     id="path32"
     inkscape:connector-curvature="0" />
</svg>
