<?xml version="1.0" encoding="UTF-8" standalone="no"?>
<svg
   xmlns:dc="http://purl.org/dc/elements/1.1/"
   xmlns:cc="http://creativecommons.org/ns#"
   xmlns:rdf="http://www.w3.org/1999/02/22-rdf-syntax-ns#"
   xmlns:svg="http://www.w3.org/2000/svg"
   xmlns="http://www.w3.org/2000/svg"
   xmlns:sodipodi="http://sodipodi.sourceforge.net/DTD/sodipodi-0.dtd"
   xmlns:inkscape="http://www.inkscape.org/namespaces/inkscape"
   viewBox="0 0 3333 3333"
   shape-rendering="geometricPrecision"
   text-rendering="geometricPrecision"
   image-rendering="optimizeQuality"
   fill-rule="evenodd"
   clip-rule="evenodd"
   version="1.1"
   id="svg22"
   sodipodi:docname="logo-instagram.svg"
   inkscape:version="0.92.4 (5da689c313, 2019-01-14)">
  <metadata
     id="metadata28">
    <rdf:RDF>
      <cc:Work
         rdf:about="">
        <dc:format>image/svg+xml</dc:format>
        <dc:type
           rdf:resource="http://purl.org/dc/dcmitype/StillImage" />
      </cc:Work>
    </rdf:RDF>
  </metadata>
  <defs
     id="defs26" />
  <sodipodi:namedview
     pagecolor="#ffffff"
     bordercolor="#666666"
     borderopacity="1"
     objecttolerance="10"
     gridtolerance="10"
     guidetolerance="10"
     inkscape:pageopacity="0"
     inkscape:pageshadow="2"
     inkscape:window-width="1920"
     inkscape:window-height="1001"
     id="namedview24"
     showgrid="false"
     inkscape:zoom="0.24242424"
     inkscape:cx="1666.5"
     inkscape:cy="1666.5"
     inkscape:window-x="1911"
     inkscape:window-y="-9"
     inkscape:window-maximized="1"
     inkscape:current-layer="svg22" />
  <path
     d="M1662 1174c285 0 516 231 516 516s-231 516-516 516-516-231-516-516 231-516 516-516zm-385-421h780c293 0 532 237 532 525v778c0 289-239 525-532 525h-780c-293 0-532-236-532-525v-778c0-289 240-525 532-525zm884 349c46 0 84 37 84 84 0 46-37 84-84 84-46 0-84-37-84-84 0-46 37-84 84-84zm-820-200h652c245 0 445 199 445 443v656c0 244-200 443-445 443h-652c-245 0-445-199-445-443v-656c0-244 200-443 445-443zM1667 0c460 0 877 187 1179 488 302 302 488 718 488 1179 0 460-187 877-488 1179-302 302-718 488-1179 488-460 0-877-187-1179-488C186 2544 0 2128 0 1667c0-460 187-877 488-1179C790 186 1206 0 1667 0zm1093 573c-280-280-666-453-1093-453S853 293 574 573c-280 280-453 666-453 1093s173 814 453 1093c280 280 666 453 1093 453s814-173 1093-453c280-280 453-666 453-1093s-173-814-453-1093zm-1098 774c188 0 341 153 341 341s-153 341-341 341c-189 0-341-153-341-341s153-341 341-341z"
     id="path20" />
  <path
     style="opacity:1;fill:#ffffff;fill-opacity:1;stroke-width:4.125"
     d="m 1553.0625,3328.7833 c -11.3438,-0.9026 -45.6844,-4.5431 -76.3125,-8.09 C 917.18377,3255.8927 428.97636,2913.6981 176.15767,2409.0815 61.215355,2179.6609 3.8276304,1934.1241 3.6594805,1671.0375 3.5340306,1474.759 28.401028,1318.5725 88.380946,1138.9125 287.65252,542.0271 810.85785,105.70668 1431.375,18.939702 1564.1097,0.37939931 1730.139,-2.1971475 1854.1875,12.378233 2398.3578,76.316839 2871.4759,395.71362 3131.8477,874.9125 c 194.4895,357.9463 250.123,787.4068 153.2775,1183.2187 -99.8165,407.9545 -346.255,761.1774 -692.5627,992.6574 -221.565,148.099 -461.8817,236.8531 -732.1875,270.4124 -49.4337,6.1373 -260.1376,11.3361 -307.3125,7.5823 z m 251.625,-121.6301 c 530.9186,-42.9398 1014.1149,-374.7243 1251.9061,-859.6157 76.4847,-155.9634 122.464,-309.944 147.1934,-492.9375 9.3547,-69.2236 10.7026,-289.7547 2.1934,-358.875 -35.0598,-284.7914 -135.8907,-539.75274 -299.35,-756.9375 C 2532.967,242.30916 1908.0144,17.298091 1303.5,161.58836 719.58748,300.96121 263.566,776.20946 148.9032,1364.8652 c -22.07033,113.3047 -26.91223,166.5908 -27.07104,297.9223 -0.15218,125.8453 3.00458,166.9828 20.73336,270.1875 43.49946,253.2239 154.08055,497.8225 317.96202,703.3125 44.15755,55.3689 174.86122,186.7548 228.34746,229.5394 183.2134,146.5555 379.6548,245.4254 596.0625,300.0013 170.6315,43.0315 336.0404,56.1831 519.75,41.325 z"
     id="path30"
     inkscape:connector-curvature="0" />
  <path
     style="opacity:1;fill:#ffffff;fill-opacity:1;stroke-width:4.125"
     d="m 1223.2769,2576.1533 c -125.1838,-13.5836 -232.41344,-64.969 -322.11321,-154.3597 -75.09321,-74.8344 -121.5169,-160.1513 -144.77643,-266.0686 -7.25835,-33.0525 -7.69976,-61.193 -7.69976,-490.875 0,-453.5383 0.0447,-455.9997 8.95693,-493.3209 44.77322,-187.49408 179.81295,-334.93466 358.16807,-391.05905 82.7608,-26.04299 63.945,-25.18255 550.6875,-25.18255 401.8013,0 446.9459,0.66496 480.8034,7.08205 224.7582,42.5989 394.6207,212.87471 432.7492,433.80205 5.4076,31.3337 6.3224,99.4155 6.3224,470.5543 0,476.5894 0.3077,469.9041 -25.2376,548.1886 -25.6119,78.4885 -67.3972,145.5882 -129.0659,207.257 -75.9175,75.9174 -160.7762,122.1125 -269.5655,146.7452 -39.922,9.0393 -43.1191,9.1065 -473.3185,9.9475 -238.2188,0.4656 -447.8785,-0.7543 -465.9106,-2.7109 z m 847.964,-137.7329 c 170.8414,-29.9196 308.3389,-156.9843 355.0073,-328.0704 l 9.5643,-35.0625 V 1673.1 1270.9125 l -9.5533,-34.9715 c -21.856,-80.0076 -61.7693,-149.1137 -118.5409,-205.2425 -57.1961,-56.54833 -122.832,-93.90562 -206.7313,-117.66292 -32.1361,-9.09977 -34.2405,-9.15284 -415.9245,-10.48815 -408.4148,-1.42883 -415.4444,-1.15472 -478.5,18.65853 -157.9546,49.63228 -276.97247,184.92934 -305.38293,347.15314 -8.96925,51.2144 -8.96925,758.2674 0,809.4818 31.43415,179.489 178.40273,327.9642 356.56863,360.2238 47.8467,8.6634 764.2672,8.9767 813.4927,0.3556 z"
     id="path32"
     inkscape:connector-curvature="0" />
  <path
     style="opacity:1;fill:#ffffff;fill-opacity:1;stroke-width:4.125"
     d="m 2125.6513,1258.4009 c -28.2122,-14.0587 -42.6274,-35.2505 -45.3117,-66.6127 -1.71,-19.9793 -0.3861,-27.1109 7.9011,-42.5632 13.2158,-24.6423 36.5679,-40.713 63.8556,-43.9448 41.3914,-4.9022 82.7418,26.6736 89.8236,68.5907 7.9486,47.047 -34.7218,94.8468 -84.7662,94.9561 -5.7936,0.013 -19.9697,-4.6791 -31.5024,-10.4261 z"
     id="path34"
     inkscape:connector-curvature="0" />
  <path
     style="opacity:1;fill:#ffffff;fill-opacity:1;stroke-width:4.125"
     d="m 1605.3415,2200.6448 c -226.164,-26.2671 -404.5244,-192.6846 -448.8036,-418.7521 -10.5115,-53.6665 -9.5097,-139.4476 2.2822,-195.4177 32.8118,-155.741 133.0172,-285.4611 275.0412,-356.0524 74.456,-37.0073 142.2637,-52.6088 228.9488,-52.6774 144.2502,-0.1141 269.8026,53.8953 370.9064,159.5544 93.0821,97.2762 140.6932,216.4945 140.6008,352.0646 -0.061,89.5258 -16.0003,155.7955 -56.609,235.3608 -78.922,154.6331 -227.6464,256.5276 -402.9585,276.076 -44.5221,4.9645 -65.5765,4.9345 -109.4083,-0.1563 z m 142.1662,-181.1901 c 156.2579,-39.9613 263.9764,-185.7561 255.8993,-346.3547 -4.4163,-87.8099 -32.905,-155.0406 -92.8492,-219.1153 -66.5897,-71.1781 -148.906,-106.9433 -246.6833,-107.1802 -136.891,-0.3316 -252.1022,71.7636 -310.4925,194.2955 -26.4746,55.557 -31.3556,79.1991 -31.084,150.5625 0.2245,59.0087 0.8735,63.7497 14.0107,102.3457 43.203,126.9272 145.9444,213.0869 278.6288,233.6599 34.4163,5.3364 94.0295,1.643 132.5702,-8.2134 z"
     id="path36"
     inkscape:connector-curvature="0" />
</svg>
