<?xml version="1.0" encoding="UTF-8" standalone="no"?>
<svg
   xmlns:dc="http://purl.org/dc/elements/1.1/"
   xmlns:cc="http://creativecommons.org/ns#"
   xmlns:rdf="http://www.w3.org/1999/02/22-rdf-syntax-ns#"
   xmlns:svg="http://www.w3.org/2000/svg"
   xmlns="http://www.w3.org/2000/svg"
   xmlns:sodipodi="http://sodipodi.sourceforge.net/DTD/sodipodi-0.dtd"
   xmlns:inkscape="http://www.inkscape.org/namespaces/inkscape"
   width="240"
   height="39"
   version="1.1"
   id="svg3733"
   sodipodi:docname="logo-white.svg"
   inkscape:version="0.92.4 (5da689c313, 2019-01-14)">
  <metadata
     id="metadata3739">
    <rdf:RDF>
      <cc:Work
         rdf:about="">
        <dc:format>image/svg+xml</dc:format>
        <dc:type
           rdf:resource="http://purl.org/dc/dcmitype/StillImage" />
        <dc:title></dc:title>
      </cc:Work>
    </rdf:RDF>
  </metadata>
  <defs
     id="defs3737" />
  <sodipodi:namedview
     pagecolor="#ffffff"
     bordercolor="#666666"
     borderopacity="1"
     objecttolerance="10"
     gridtolerance="10"
     guidetolerance="10"
     inkscape:pageopacity="0"
     inkscape:pageshadow="2"
     inkscape:window-width="1920"
     inkscape:window-height="1001"
     id="namedview3735"
     showgrid="false"
     inkscape:zoom="7.3333333"
     inkscape:cx="120"
     inkscape:cy="19.5"
     inkscape:window-x="1911"
     inkscape:window-y="-9"
     inkscape:window-maximized="1"
     inkscape:current-layer="svg3733" />
  <g
     fill-rule="nonzero"
     fill="none"
     id="g3731">
    <path
       d="M27.967.879C20.242.875 12.182 2.615 4.047 4.872c-1.033.208-2.041.884-2.574 1.72C.983 7.38.805 8.171.652 9c-.79 4.428-.694 8.776-.53 13.594.036 1.103.2 2.41.715 3.205.538.803 1.46 1.313 2.561 1.48a95.99 95.99 0 0 0 4.232.525l-.312 8.698c-.048.692.29 1.267.71 1.598.376.286.795.413 1.225.445.86.065 1.869-.303 2.37-1.257 2.195-4.224 3.572-6.089 6.317-8.895 7.158.176 13.407-.222 20.482-.745 2.501-.065 4.218-2.11 4.672-3.743 1.357-4.232 1.568-9.456 1.712-14.737.061-2.093-.665-4.148-1.95-5.234-1.222-.991-2.702-1.35-4.058-1.718C35.031 1.363 31.263.905 27.967.879zm10.29 3.31c1.358.369 2.555.724 3.31 1.337 1.26 1.339 1.218 2.23 1.2 3.675-.142 5.122-.388 10.093-1.544 13.86-.498 1.405-1.366 2.405-3.006 2.556-7.208.533-13.462.945-20.707.739a1.032 1.032 0 0 0-.763.302c-3.044 3.074-4.601 5.21-6.921 9.676-.054.102-.171.164-.315.175-.097-.005-.136-.08-.142-.148l.314-9.432c.019-.509-.401-.995-.907-1.05a95.48 95.48 0 0 1-5.06-.62c-.726-.111-.994-.31-1.193-.606-.346-.825-.338-1.335-.365-2.128-.162-4.775-.242-8.948.491-13.1.068-.614.298-1.242.542-1.767.404-.632 1.023-.725 1.644-.897 7.956-2.197 15.74-3.84 23.068-3.845 3.592.13 7.364.49 10.354 1.273zm-27.479 8.09c-1.096 1.313-.987 3.096-.14 4.29.442.625 1.132 1.128 1.972 1.242 1.091.09 1.783-.352 2.53-.86 1.353-1.176 1.49-3.228.461-4.71-.524-.755-1.362-1.208-2.218-1.24-1.172.012-1.968.535-2.605 1.277zm11.856-1.072c-1.092.035-1.975.791-2.514 1.607-.617.933-.977 2.101-.478 3.246.96 2.203 4.277 2.176 5.6-.063.61-1.032.454-2.205 0-3.056-.452-.85-1.136-1.543-2.131-1.702a2.494 2.494 0 0 0-.477-.032zm9.625.207c-.34-.008-.69.024-1.018.111-1.312.35-2.429 1.704-2.26 3.437.086.872.487 1.722 1.21 2.308.723.585 1.773.847 2.88.62 1.272-.26 2.06-1.285 2.323-2.275.263-.99.197-1.999-.414-2.817a3.47 3.47 0 0 0-2.72-1.384zm-18.965 1.623c.245.002.438.08.637.366.445.642.321 1.615-.128 2.005-.447.39-.726.424-.922.398-.196-.027-.395-.162-.573-.414-.34-.48-.44-1.256.007-1.81.238-.316.675-.513.98-.545zm9.483.223c.038.006.464.253.668.636.204.383.242.739.048 1.066-.577.976-1.804.712-1.99.287-.07-.162-.017-.813.32-1.32.335-.509.757-.7.954-.67zm10.564.748c.062.083.213.64.096 1.082-.118.442-.31.715-.78.811-.602.124-.94 0-1.193-.207-.254-.205-.425-.552-.462-.923-.09-.92.24-1.133.764-1.273.61-.15 1.3.112 1.575.51z"
       fill="#FF52C1"
       id="path3727" />
    <path
       d="M57.61 4.996c.016-.26.111-.494.287-.701a.875.875 0 0 1 .701-.31h6.826c.23 0 .467.096.712.287a.883.883 0 0 1 .368.724v10.893h11.421V4.996c0-.276.096-.513.287-.712.192-.2.44-.3.747-.3h6.734c.306 0 .574.077.804.23.23.154.345.399.345.736V37.1c0 .337-.1.59-.3.758-.198.169-.459.253-.78.253h-6.803c-.306 0-.555-.084-.747-.253-.191-.168-.287-.42-.287-.758V24.047H66.504V37.1c0 .322-.104.57-.31.747-.207.176-.487.264-.84.264h-6.756c-.643 0-.972-.299-.988-.896V4.996zm62.875 32.725c-.199.168-.41.275-.632.321a3.123 3.123 0 0 1-.631.07h-3.47c-.276 0-.514-.05-.713-.15-.2-.1-.368-.234-.506-.402a2.384 2.384 0 0 1-.344-.575 4.884 4.884 0 0 1-.23-.666l-.712-2.942c-.23.475-.563 1.015-1 1.62a8.495 8.495 0 0 1-1.666 1.7c-.674.53-1.479.974-2.413 1.334-.935.36-2.007.54-3.218.54-1.746 0-3.332-.337-4.757-1.011a10.904 10.904 0 0 1-3.642-2.758c-1.003-1.164-1.781-2.524-2.332-4.08-.552-1.554-.828-3.213-.828-4.974V10.695c0-.582.127-1.022.38-1.321.252-.299.654-.448 1.206-.448h5.308c.66 0 1.111.11 1.356.333.245.222.368.655.368 1.298v14.96c0 .66.15 1.284.448 1.874.299.59.693 1.11 1.184 1.562.49.452 1.045.809 1.666 1.069.62.26 1.252.39 1.896.39.551 0 1.122-.13 1.712-.39a6.361 6.361 0 0 0 1.631-1.046c.498-.436.908-.95 1.23-1.54.322-.59.482-1.214.482-1.872V10.626c0-.26.05-.52.15-.781.1-.26.249-.46.448-.598.199-.122.387-.206.563-.252.176-.046.38-.07.609-.07h5.194c.658 0 1.133.162 1.424.483.291.322.437.751.437 1.287v25.716c0 .29-.065.559-.195.804s-.31.437-.54.574l.137-.068zm26.681-3.172c-.414.414-.87.858-1.367 1.333-.498.475-1.046.92-1.643 1.333a9.3 9.3 0 0 1-1.93 1.023 6.097 6.097 0 0 1-2.23.402c-2.083 0-4.002-.39-5.757-1.172a13.777 13.777 0 0 1-4.527-3.206c-1.264-1.356-2.252-2.953-2.964-4.792-.713-1.838-1.069-3.814-1.069-5.929 0-2.13.356-4.11 1.069-5.94.712-1.83 1.7-3.424 2.964-4.78a13.635 13.635 0 0 1 4.527-3.194c1.755-.774 3.674-1.161 5.757-1.161.843 0 1.613.123 2.31.368a8.51 8.51 0 0 1 1.907.942c.575.383 1.103.816 1.586 1.298.482.483.938.954 1.367 1.414V1.985c0-.49.15-.903.448-1.24.299-.338.747-.506 1.345-.506h5.17c.2 0 .41.042.632.126.222.085.425.203.61.357.183.153.332.337.447.551.115.215.173.452.173.712v34.357c0 1.18-.62 1.77-1.862 1.77h-4.504c-.306 0-.544-.04-.712-.116a1.13 1.13 0 0 1-.426-.333 2.319 2.319 0 0 1-.31-.551 17.13 17.13 0 0 0-.344-.77l-.667-1.793zm-13.214-11.008a8.39 8.39 0 0 0 .471 2.839c.314.88.762 1.643 1.345 2.286a6.384 6.384 0 0 0 2.102 1.528c.82.376 1.728.563 2.724.563.98 0 1.903-.176 2.769-.528a7.058 7.058 0 0 0 2.263-1.46 7.256 7.256 0 0 0 1.552-2.194c.39-.843.609-1.747.655-2.712v-.322a7.26 7.26 0 0 0-.552-2.803 7.427 7.427 0 0 0-1.528-2.344 7.242 7.242 0 0 0-2.298-1.597 6.977 6.977 0 0 0-2.861-.586c-.996 0-1.904.195-2.724.586-.82.39-1.52.923-2.102 1.597a7.236 7.236 0 0 0-1.345 2.344 8.35 8.35 0 0 0-.47 2.803zm48.72 11.008c-.414.414-.87.858-1.368 1.333-.498.475-1.046.92-1.643 1.333a9.3 9.3 0 0 1-1.93 1.023 6.097 6.097 0 0 1-2.23.402c-2.083 0-4.002-.39-5.756-1.172a13.777 13.777 0 0 1-4.528-3.206c-1.263-1.356-2.252-2.953-2.964-4.792-.712-1.838-1.069-3.814-1.069-5.929 0-2.13.357-4.11 1.069-5.94s1.7-3.424 2.964-4.78a13.635 13.635 0 0 1 4.528-3.194c1.754-.774 3.673-1.161 5.756-1.161.843 0 1.613.123 2.31.368a8.51 8.51 0 0 1 1.907.942c.575.383 1.103.816 1.586 1.298.483.483.938.954 1.367 1.414V1.985c0-.49.15-.903.448-1.24.3-.338.747-.506 1.345-.506h5.17c.2 0 .41.042.632.126.223.085.426.203.61.357.183.153.333.337.448.551.114.215.172.452.172.712v34.357c0 1.18-.62 1.77-1.862 1.77h-4.504c-.306 0-.544-.04-.712-.116a1.13 1.13 0 0 1-.425-.333 2.319 2.319 0 0 1-.31-.551 17.13 17.13 0 0 0-.345-.77l-.667-1.793zm-13.215-11.008a8.39 8.39 0 0 0 .471 2.839c.315.88.763 1.643 1.345 2.286a6.384 6.384 0 0 0 2.103 1.528c.82.376 1.727.563 2.723.563.98 0 1.903-.176 2.769-.528a7.058 7.058 0 0 0 2.264-1.46 7.256 7.256 0 0 0 1.55-2.194c.391-.843.61-1.747.656-2.712v-.322a7.26 7.26 0 0 0-.552-2.803 7.427 7.427 0 0 0-1.528-2.344 7.242 7.242 0 0 0-2.298-1.597 6.977 6.977 0 0 0-2.861-.586c-.996 0-1.904.195-2.723.586-.82.39-1.521.923-2.103 1.597a7.236 7.236 0 0 0-1.345 2.344 8.35 8.35 0 0 0-.47 2.803zM197.61 2.008c0-.49.122-.903.367-1.24.246-.338.667-.506 1.264-.506h5.63c.154 0 .315.042.483.126a1.7 1.7 0 0 1 .471.357c.146.153.268.337.368.551.1.215.15.452.15.712v34.334c0 .582-.165 1.022-.495 1.321-.329.299-.754.448-1.275.448h-5.332c-.597 0-1.018-.15-1.264-.448-.245-.299-.367-.74-.367-1.321V2.008zm38.7 32.61a15.31 15.31 0 0 1-4.55 2.907 13.87 13.87 0 0 1-5.355 1.046c-2.1 0-4.083-.383-5.952-1.15a15.494 15.494 0 0 1-4.918-3.182 15.273 15.273 0 0 1-3.355-4.792c-.828-1.838-1.241-3.837-1.241-5.998 0-1.348.164-2.654.494-3.918a15.45 15.45 0 0 1 1.402-3.55 15.055 15.055 0 0 1 2.206-3.045 13.957 13.957 0 0 1 2.907-2.379 14.327 14.327 0 0 1 3.493-1.54 14.084 14.084 0 0 1 3.975-.551c1.272 0 2.505.169 3.7.506 1.195.337 2.318.812 3.367 1.424 1.05.613 2.01 1.349 2.884 2.207a14.896 14.896 0 0 1 2.252 2.815 13.58 13.58 0 0 1 1.46 3.263c.344 1.157.517 2.348.517 3.573 0 .797-.012 1.448-.035 1.954-.023.505-.142.908-.356 1.206-.215.3-.57.506-1.069.62-.498.116-1.23.173-2.194.173h-16.546c.153.98.463 1.8.93 2.46a5.842 5.842 0 0 0 1.62 1.573c.613.391 1.264.67 1.954.84a8.24 8.24 0 0 0 1.953.252c.552 0 1.118-.058 1.7-.172a12.179 12.179 0 0 0 1.69-.46 9.557 9.557 0 0 0 1.493-.667c.452-.252.816-.517 1.092-.792.245-.2.456-.349.632-.449.176-.1.364-.149.563-.149.2 0 .402.07.61.207a4.8 4.8 0 0 1 .7.597l2.436 2.758c.168.2.276.38.322.54.046.161.069.326.069.494 0 .307-.085.571-.253.793a2.89 2.89 0 0 1-.598.586zm-11.054-19.143c-.598 0-1.176.119-1.735.356a6.547 6.547 0 0 0-1.575.954c-.49.398-.93.85-1.321 1.356a8.315 8.315 0 0 0-.954 1.54h11.743a13.536 13.536 0 0 0-1.045-1.655 7.081 7.081 0 0 0-1.287-1.333 5.558 5.558 0 0 0-1.655-.896c-.62-.215-1.344-.322-2.171-.322z"
       fill="#00252E"
       id="path3729" />
  </g>
  <path
     style="opacity:1;fill:#ffffff;fill-opacity:1;stroke-width:0.13636364"
     d="M 8.4576652,38.238318 C 7.3093653,37.644735 7.3194732,37.706265 7.5100349,32.469825 7.6016071,29.953514 7.6481989,27.866381 7.613572,27.831754 7.5789451,27.797127 6.5727487,27.643958 5.3775798,27.49138 2.8939713,27.174314 2.1686794,26.971845 1.4784865,26.40293 0.33606753,25.461252 0.12491058,24.198695 0.1145413,18.247583 0.10218881,11.158275 0.62696718,7.5798267 1.8828195,6.1897484 2.5988221,5.397219 3.300082,5.1070853 6.5594701,4.2548681 15.818621,1.8339205 23.649595,0.69854454 29.25,0.96507514 34.04974,1.193501 39.671341,2.2445444 41.763316,3.3046285 c 1.415575,0.7173255 2.339394,1.9880888 2.772675,3.8139661 0.376123,1.5850028 0.115701,7.9845054 -0.49608,12.1904964 -0.552958,3.801585 -1.247582,5.74938 -2.452167,6.876129 -1.25216,1.171248 -1.690606,1.293119 -5.693558,1.582586 -5.748416,0.415686 -8.853844,0.541633 -13.558455,0.549885 l -4.459724,0.0078 -1.239144,1.393106 c -1.5837,1.780474 -2.771515,3.441409 -3.849061,5.38219 -1.616335,2.9112 -1.900789,3.219182 -3.1178274,3.3757 -0.4677997,0.06016 -0.7377282,0.0071 -1.2123094,-0.238195 z m 2.2318388,-3.396873 c 1.673607,-3.053433 3.714002,-5.82019 5.647053,-7.657354 L 17.161572,26.4 h 4.57083 c 4.783045,0 7.771498,-0.117912 13.614603,-0.537177 3.045359,-0.218516 3.589698,-0.292046 4.142281,-0.559548 0.697034,-0.337428 1.330659,-1.117488 1.726716,-2.125773 C 41.553203,22.319055 42.084428,19.575986 42.334878,17.4 42.6018,15.080898 42.895938,8.5343663 42.769915,7.7175491 42.625615,6.7822713 41.957596,5.7264914 41.208895,5.2504113 38.876633,3.7673862 31.052097,2.6446036 25.222574,2.9564523 20.149425,3.2278388 14.963759,4.1005334 8.3017424,5.8040543 3.3734356,7.0642546 3.4486662,7.031928 2.9736664,8.0935327 2.83096,8.4124758 2.5808543,9.5170212 2.4178759,10.548078 c -0.2691345,1.702638 -0.2964296,2.393908 -0.2974732,7.53374 -0.0013,6.368362 0.022276,6.553444 0.8889505,6.98065 0.2814589,0.138739 1.418858,0.343164 2.8542832,0.513004 3.038198,0.35948 3.2640263,0.411845 3.5558201,0.824528 0.2487842,0.351855 0.241727,1.358285 -0.060001,8.556818 -0.059078,1.409468 -0.044388,1.534091 0.1808324,1.534091 0.1725981,0 0.5126551,-0.488082 1.1492161,-1.649464 z"
     id="path3741"
     inkscape:connector-curvature="0" />
  <path
     style="opacity:1;fill:#ffffff;fill-opacity:1;stroke-width:0.13636364"
     d="M 12.085195,17.614105 C 10.086558,16.88147 9.4344232,14.118241 10.828731,12.29021 c 0.501343,-0.657296 1.590189,-1.184194 2.463374,-1.19204 2.365548,-0.02126 3.771287,3.06921 2.347828,5.161615 -0.781899,1.149348 -2.415759,1.771832 -3.554738,1.35432 z m 1.41717,-1.941739 c 0.482406,-0.284965 0.733999,-0.744463 0.733999,-1.340548 0,-0.994608 -0.614465,-1.492001 -1.42726,-1.155331 -0.865968,0.358696 -1.092686,1.642729 -0.410503,2.324912 0.461657,0.461657 0.580503,0.480065 1.103764,0.170967 z"
     id="path3743"
     inkscape:connector-curvature="0" />
  <path
     style="opacity:1;fill:#ffffff;fill-opacity:1;stroke-width:0.13636364"
     d="m 21.409091,17.512507 c -1.636945,-0.46516 -2.370538,-2.320355 -1.584786,-4.007788 1.268614,-2.724398 4.070185,-3.010283 5.331464,-0.544046 0.963737,1.884437 0.102592,3.909904 -1.921293,4.519004 -0.729116,0.219432 -1.142548,0.226868 -1.825385,0.03283 z m 1.656426,-2.032335 c 0.151172,-0.0809 0.354872,-0.337395 0.452666,-0.569976 0.214612,-0.510414 0.07351,-1.015633 -0.410712,-1.470534 -0.284755,-0.267513 -0.380836,-0.289711 -0.674617,-0.155855 -0.411398,0.187446 -0.853799,0.874355 -0.974456,1.513022 -0.06823,0.361172 -0.03205,0.505812 0.16203,0.647727 0.300772,0.21993 1.065479,0.238777 1.445089,0.03562 z"
     id="path3745"
     inkscape:connector-curvature="0" />
  <path
     style="opacity:1;fill:#ffffff;fill-opacity:1;stroke-width:0.13636364"
     d="m 31.257517,17.753051 c -0.854331,-0.278512 -1.455554,-0.797577 -1.857056,-1.603285 -0.79647,-1.598308 -0.208257,-3.58073 1.289115,-4.344633 0.700667,-0.357454 2.159164,-0.362445 2.935081,-0.01004 0.711308,0.323057 1.500991,1.135164 1.705049,1.753466 0.333978,1.011962 -0.01551,2.620535 -0.743384,3.421533 C 33.866,17.76278 32.36809,18.1151 31.257517,17.753054 Z m 1.915078,-2.101403 c 0.141394,-0.141394 0.290812,-0.508578 0.332042,-0.815963 0.06593,-0.491544 0.02488,-0.608968 -0.340712,-0.974557 -0.342229,-0.34223 -0.525948,-0.415673 -1.039799,-0.415673 -0.799839,0 -1.171548,0.337265 -1.164749,1.056818 0.0092,0.976871 0.630791,1.592244 1.487017,1.472217 0.258016,-0.03617 0.584807,-0.181448 0.726201,-0.322842 z"
     id="path3747"
     inkscape:connector-curvature="0" />
  <path
     style="opacity:1;fill:#ffffff;fill-opacity:1;stroke-width:0.13636364"
     d="m 57.896104,37.776623 c -0.19243,-0.192429 -0.214286,-1.887348 -0.214286,-16.617973 0,-16.3886887 2.59e-4,-16.4040171 0.282625,-16.7629874 l 0.282624,-0.359299 h 3.721713 c 3.558676,0 3.737453,0.012381 4.081012,0.2826246 l 0.359299,0.2826246 V 10.250806 15.9 H 72.204545 78 V 10.264679 4.6293584 l 0.322173,-0.302666 c 0.319212,-0.299884 0.357251,-0.302296 4.138392,-0.2624065 2.988014,0.031522 3.865102,0.080876 4.041464,0.2274111 0.207148,0.1721163 0.225244,1.5151588 0.225244,16.717502 0,15.841154 -0.01039,16.53976 -0.249374,16.75603 -0.219773,0.198891 -0.710952,0.22568 -4.137956,0.22568 -3.594015,0 -3.905678,-0.01889 -4.114263,-0.249374 C 78.022058,37.516535 78,36.830123 78,30.718808 v -6.773353 h -5.795455 -5.795454 v 6.797046 c 0,6.411689 -0.01414,6.809842 -0.249374,7.022728 -0.219809,0.198924 -0.711743,0.22568 -4.14935,0.22568 -3.363616,0 -3.929448,-0.02947 -4.114263,-0.214286 z"
     id="path3749"
     inkscape:connector-curvature="0" />
  <path
     style="opacity:1;fill:#ffffff;fill-opacity:1;stroke-width:0.13636364"
     d="M 103.22727,38.401579 C 99.551588,37.812436 96.577828,35.550809 94.887691,32.059091 94.139073,30.512493 93.732997,29.07023 93.543908,27.286364 93.347017,25.428901 93.384238,10.495291 93.587242,9.9 c 0.293925,-0.861909 0.685827,-0.9542024 4.049122,-0.9535731 3.118836,5.836e-4 3.848596,0.1040352 4.123396,0.5845397 0.1313,0.2295852 0.18821,2.3035824 0.24024,8.7553974 l 0.0682,8.454545 0.33416,0.681818 c 0.92931,1.896148 3.29936,3.250461 5.25968,3.005534 1.62233,-0.202696 3.54121,-1.628896 4.2623,-3.167947 l 0.37113,-0.792132 0.0682,-8.338105 c 0.065,-7.947821 0.0803,-8.3514972 0.32726,-8.6242344 0.42063,-0.46456 1.09026,-0.5588671 3.96819,-0.5588671 2.97304,0 3.59414,0.098226 4.01652,0.6352022 0.27676,0.3518322 0.27894,0.4605453 0.27894,13.9180303 v 13.563428 l -0.46364,0.463637 -0.46364,0.463636 h -2.40896 c -1.32493,0 -2.52218,-0.06059 -2.66054,-0.134639 -0.45875,-0.245515 -0.80895,-1.025109 -1.224,-2.724803 -0.22575,-0.924484 -0.4301,-1.700522 -0.4541,-1.724529 -0.024,-0.02401 -0.34733,0.422362 -0.71848,0.991929 -0.37115,0.569568 -1.03449,1.362041 -1.47408,1.761049 -0.87734,0.796349 -2.46442,1.681225 -3.63256,2.025333 -0.90195,0.265694 -3.18906,0.382736 -4.22728,0.21633 z"
     id="path3751"
     inkscape:connector-curvature="0" />
  <path
     style="opacity:1;fill:#ffffff;fill-opacity:1;stroke-width:0.13636364"
     d="m 137.26711,38.331115 c -5.86364,-1.206643 -10.05746,-5.59104 -11.28206,-11.794751 -0.22613,-1.145518 -0.22613,-4.854483 0,-6 0.62989,-3.191002 1.96638,-5.774966 4.09919,-7.92539 2.49708,-2.517705 5.49153,-3.8484132 9.07485,-4.0327943 2.76381,-0.1422126 4.39425,0.5070982 6.60741,2.6313443 0.73426,0.704762 1.37354,1.281385 1.42062,1.281385 0.0471,0 0.0856,-2.5220454 0.0856,-5.6045454 V 1.2818182 L 147.73636,0.81818182 148.2,0.35454545 h 3.23123 c 3.53638,0 3.74723,0.0412544 4.20938,0.82361365 0.20339,0.3443201 0.22303,1.9445945 0.22303,18.1784589 v 17.800901 l -0.32887,0.382605 -0.32886,0.382603 -3.09544,0.04146 c -2.82643,0.03785 -3.11911,0.02008 -3.3677,-0.204545 -0.32181,-0.290783 -0.75932,-1.144766 -1.19141,-2.325547 -0.17154,-0.46875 -0.33967,-0.852273 -0.37364,-0.852273 -0.034,0 -0.55041,0.444887 -1.14766,0.988637 -1.34094,1.220829 -2.71469,2.15925 -3.75878,2.567663 -1.00399,0.392728 -3.55541,0.49113 -5.00417,0.192997 z m 5.38896,-7.817087 c 2.24692,-0.623053 4.18753,-2.517163 4.90349,-4.78601 0.35978,-1.140116 0.38497,-3.048471 0.0553,-4.190451 -1.09905,-3.807286 -5.00634,-6.124067 -8.70402,-5.160943 -1.13164,0.294755 -1.8156,0.683836 -2.72216,1.548555 -2.42631,2.314305 -2.98287,6.316151 -1.32922,9.557567 0.6579,1.289589 2.17786,2.544358 3.65352,3.016091 1.05839,0.33834 2.95265,0.345287 4.14308,0.01519 z"
     id="path3753"
     inkscape:connector-curvature="0" />
  <path
     style="opacity:1;fill:#ffffff;fill-opacity:1;stroke-width:0.13636364"
     d="m 172.81829,38.341073 c -5.79422,-1.090631 -10.22695,-5.713143 -11.30422,-11.788185 -0.26894,-1.516648 -0.26851,-4.507658 8.6e-4,-6.033049 0.53308,-3.018648 1.97936,-5.837797 4.08369,-7.960081 2.649,-2.6715978 6.5505,-4.1942002 10.22277,-3.9895489 2.1571,0.1202124 3.76245,0.9171322 5.70677,2.8329279 0.60718,0.598275 1.12538,1.087772 1.15154,1.087772 0.0262,0 0.0476,-2.457593 0.0476,-5.4613172 0,-4.5785193 0.0329,-5.5250123 0.20377,-5.8553585 0.41364,-0.79989419 0.511,-0.81973558 4.01976,-0.8191781 2.94149,4.6772e-4 3.24459,0.0226459 3.64485,0.26669691 0.91905,0.56037479 0.8589,-0.73867136 0.8589,18.54858289 0,18.822663 0.0275,18.090234 -0.69776,18.598207 -0.27026,0.189298 -0.76571,0.222367 -3.33154,0.222367 -2.95403,0 -3.0195,-0.0061 -3.28665,-0.306818 -0.25075,-0.282252 -0.7013,-1.237893 -1.14115,-2.420455 -0.0976,-0.2625 -0.22694,-0.533456 -0.28734,-0.602123 -0.0621,-0.07058 -0.57125,0.315513 -1.17132,0.888175 -1.16778,1.114436 -2.5647,2.084198 -3.72061,2.582903 -0.6285,0.271162 -1.01508,0.329154 -2.38636,0.357995 -0.95341,0.02005 -2.0442,-0.04235 -2.61353,-0.149513 z m 5.19877,-7.786235 c 3.81819,-0.994511 6.11603,-4.914033 5.14109,-8.769371 -0.36303,-1.435601 -0.94292,-2.457246 -1.9959,-3.516359 -3.37958,-3.399262 -8.83709,-2.586005 -10.90965,1.62571 -2.10817,4.284086 -0.13985,9.528004 4.00546,10.671165 0.8814,0.243062 2.80492,0.23736 3.759,-0.01114 z"
     id="path3755"
     inkscape:connector-curvature="0" />
  <path
     style="opacity:1;fill:#ffffff;fill-opacity:1;stroke-width:0.13636364"
     d="m 198.26091,37.816118 c -0.54032,-0.414848 -0.53364,-0.182152 -0.53364,-18.573016 0,-19.18476995 -0.0292,-18.37164423 0.67427,-18.74815049 0.15897,-0.085079 1.54825,-0.14040606 3.52565,-0.14040606 3.14107,0 3.27738,0.0110733 3.63913,0.29562276 0.78918,0.62076829 0.75186,-0.30185508 0.75186,18.59074079 0,14.725312 -0.0297,17.466314 -0.1938,17.858959 -0.34921,0.835776 -0.62185,0.891562 -4.33352,0.886705 -2.38959,-0.0031 -3.37392,-0.05066 -3.52995,-0.170455 z"
     id="path3757"
     inkscape:connector-curvature="0" />
  <path
     style="opacity:1;fill:#ffffff;fill-opacity:1;stroke-width:0.13636364"
     d="m 224.38636,38.389505 c -7.16407,-0.987076 -12.60216,-6.494661 -13.29944,-13.46938 -0.7395,-7.39707 3.9582,-14.232548 10.99837,-16.0033881 1.00347,-0.2524059 1.57117,-0.3030609 3.3238,-0.2965738 1.82406,0.00675 2.29334,0.055897 3.4253,0.3587128 4.81684,1.2885721 8.64324,4.9186581 10.12027,9.6010331 0.66641,2.112604 0.78345,5.781644 0.2143,6.71755 -0.49702,0.817276 -0.65919,0.829814 -10.73439,0.829814 h -9.06139 l 0.0719,0.53625 c 0.26417,1.969541 2.03769,3.764917 4.3958,4.449976 2.34841,0.682241 5.72673,-0.0682 8.00005,-1.777092 0.90337,-0.679068 1.16699,-0.735477 1.77395,-0.379589 0.50562,0.29647 3.21936,3.348188 3.4001,3.823559 0.2299,0.604704 0.0111,1.073013 -0.87767,1.878724 -1.76682,1.601652 -4.05452,2.834701 -6.3304,3.412027 -1.51623,0.384623 -3.91654,0.525605 -5.42058,0.318377 z m 7.02273,-18.796263 c 0,-0.272162 -1.41022,-2.21238 -1.94963,-2.682355 -1.27989,-1.115132 -3.36215,-1.697945 -4.99704,-1.398645 -1.37322,0.251398 -2.67208,1.12674 -3.87395,2.610777 -0.42198,0.521045 -0.90665,1.333713 -0.90665,1.520209 0,0.04123 2.63863,0.07495 5.86363,0.07495 3.46075,0 5.86364,-0.0512 5.86364,-0.12494 z"
     id="path3759"
     inkscape:connector-curvature="0" />
</svg>
