<?xml version="1.0" encoding="UTF-8" standalone="no"?>
<svg
   xmlns:dc="http://purl.org/dc/elements/1.1/"
   xmlns:cc="http://creativecommons.org/ns#"
   xmlns:rdf="http://www.w3.org/1999/02/22-rdf-syntax-ns#"
   xmlns:svg="http://www.w3.org/2000/svg"
   xmlns="http://www.w3.org/2000/svg"
   xmlns:sodipodi="http://sodipodi.sourceforge.net/DTD/sodipodi-0.dtd"
   xmlns:inkscape="http://www.inkscape.org/namespaces/inkscape"
   viewBox="0 0 3333 3333"
   shape-rendering="geometricPrecision"
   text-rendering="geometricPrecision"
   image-rendering="optimizeQuality"
   fill-rule="evenodd"
   clip-rule="evenodd"
   version="1.1"
   id="svg12"
   sodipodi:docname="logo-facebook.svg"
   inkscape:version="0.92.4 (5da689c313, 2019-01-14)">
  <metadata
     id="metadata18">
    <rdf:RDF>
      <cc:Work
         rdf:about="">
        <dc:format>image/svg+xml</dc:format>
        <dc:type
           rdf:resource="http://purl.org/dc/dcmitype/StillImage" />
      </cc:Work>
    </rdf:RDF>
  </metadata>
  <defs
     id="defs16" />
  <sodipodi:namedview
     pagecolor="#ffffff"
     bordercolor="#666666"
     borderopacity="1"
     objecttolerance="10"
     gridtolerance="10"
     guidetolerance="10"
     inkscape:pageopacity="0"
     inkscape:pageshadow="2"
     inkscape:window-width="1920"
     inkscape:window-height="1001"
     id="namedview14"
     showgrid="false"
     inkscape:zoom="0.24242424"
     inkscape:cx="1666.5"
     inkscape:cy="1666.5"
     inkscape:window-x="1911"
     inkscape:window-y="-9"
     inkscape:window-maximized="1"
     inkscape:current-layer="svg12" />
  <path
     d="M1667 0c460 0 877 187 1179 488 302 302 488 718 488 1179 0 460-187 877-488 1179-302 302-718 488-1179 488-460 0-877-187-1179-488C186 2544 0 2128 0 1667c0-460 187-877 488-1179C790 186 1206 0 1667 0zm181 1137h301V776h-301c-232 0-421 189-421 421v181h-241v361h241v963h361v-963h301l60-361h-361v-181c0-33 28-60 60-60zm913-563c-280-280-666-453-1093-453S854 294 575 574c-280 280-453 666-453 1093s173 814 453 1093c280 280 666 453 1093 453s814-173 1093-453c280-280 453-666 453-1093s-173-814-453-1093z"
     fill-rule="nonzero"
     id="path10" />
  <path
     style="opacity:1;fill:#ffffff;fill-opacity:1;stroke-width:4.125"
     d="M 1427.25,2219.6625 V 1739.1 H 1307.625 1188 V 1559.6625 1380.225 h 119.625 119.625 v -92.9751 c 0,-145.8517 9.7062,-203.1554 46.9785,-277.3535 54.204,-107.90384 151.2823,-186.39911 270.5991,-218.80019 38.9292,-10.57142 40.657,-10.66614 221.7661,-12.15746 l 182.5313,-1.50304 V 957.14286 1136.85 H 1988.86 c -159.7512,0 -160.3099,0.03 -174.2812,9.3635 -26.6434,17.7989 -28.4402,26.3919 -28.4474,136.0427 l -0.01,97.9688 h 179.4375 c 140.8148,0 179.4315,1.1098 179.4098,5.1562 -0.029,5.5754 -52.0468,323.6649 -55.9882,342.375 l -2.3896,11.3438 H 1936.3597 1786.125 v 480.5625 480.5625 H 1606.6875 1427.25 Z"
     id="path20"
     inkscape:connector-curvature="0" />
  <path
     style="opacity:1;fill:#ffffff;fill-opacity:1;stroke-width:4.125"
     d="M 1553.0625,3328.7833 C 1026.2105,3286.8617 564.25817,3017.2039 278.41139,2584.725 125.62922,2353.5694 40.165278,2113.6136 10.28573,1831.9125 -1.0880376,1724.6819 1.7514502,1557.8878 16.886754,1444.1625 41.236561,1261.2002 103.81823,1063.3786 188.4891,901.725 486.99944,331.80907 1068.1058,-12.166322 1705.5781,3.7115987 c 156.9769,3.9099221 282.3047,22.9205953 427.7234,64.8803533 385.1996,111.147228 726.7036,368.792728 943.007,711.445548 283.2021,448.6291 334.2776,1013.6353 136.1058,1505.625 -201.3265,499.8217 -627.699,870.7057 -1147.4862,998.1514 -133.4027,32.7087 -221.577,43.3742 -373.6781,45.1997 -64.6594,0.776 -126.8438,0.6723 -138.1875,-0.2302 z M 1819.125,3207.583 c 270.6194,-26.813 533.2462,-125.8661 752.8125,-283.9332 120.7161,-86.9042 243.532,-207.4888 334.6929,-328.6123 120.0918,-159.5633 212.2965,-352.0994 260.9341,-544.8665 53.3948,-211.6211 61.9442,-433.8745 25.0158,-650.3158 C 3103.9439,880.349 2745.7295,435.7478 2253.2343,233.97677 2121.8286,180.14101 1982.6796,144.96742 1833.5625,127.89364 1759.4373,119.40636 1593.301,118.16206 1522.125,125.56109 1162.41,162.95487 846.12408,309.1477 592.55377,555.225 c -167.91233,162.95053 -288.41633,345.14366 -371.04987,561 -153.443632,400.8273 -130.930995,858.8087 61.03089,1241.5697 151.88496,302.85 402.81078,551.6234 705.40271,699.3518 191.6581,93.5694 364.3303,138.0735 606.375,156.2855 33.6853,2.5345 178.1271,-1.2235 224.8125,-5.849 z"
     id="path22"
     inkscape:connector-curvature="0" />
</svg>
